<svg version="1.1" viewBox="0.0 0.0 835.994750656168 459.06299212598424" fill="none" stroke="none" stroke-linecap="square" stroke-miterlimit="10" xmlns:xlink="http://www.w3.org/1999/xlink" xmlns="http://www.w3.org/2000/svg"><clipPath id="p.0"><path d="m0 0l835.99475 0l0 459.063l-835.99475 0l0 -459.063z" clip-rule="nonzero"/></clipPath><g clip-path="url(#p.0)"><path fill="#000000" fill-opacity="0.0" d="m0 0l835.99475 0l0 459.063l-835.99475 0z" fill-rule="evenodd"/><path fill="#444444" d="m227.57217 12.346457l51.02362 0l0 343.2126l-51.02362 0z" fill-rule="evenodd"/><path fill="#444444" d="m554.27295 12.346457l51.02362 0l0 343.2126l-51.02362 0z" fill-rule="evenodd"/><path fill="#444444" d="m242.32756 569.13074c0 -97.04559 78.649826 -175.71655 175.6693 -175.71655c97.01944 0 175.66928 78.67096 175.66928 175.71655z" fill-rule="evenodd"/><path fill="#ffffff" d="m426.43307 378.54855l-10.188995 14.86615l-10.188965 -14.86615z" fill-rule="evenodd"/><path fill="#222222" d="m423.25198 380.0735l-7.007904 10.047241l-7.0078735 -10.047241z" fill-rule="evenodd"/><path fill="#ffffff" d="m268.33334 39.87139l10.236206 0l0 2.1417313l-10.236206 0z" fill-rule="evenodd"/><path fill="#ffffff" d="m268.3596 68.43569l10.236206 0l0 2.141739l-10.236206 0z" fill-rule="evenodd"/><path fill="#ffffff" d="m268.32022 97.0l10.236206 0l0 2.1417313l-10.236206 0z" fill-rule="evenodd"/><path fill="#ffffff" d="m268.34647 125.56431l10.236206 0l0 2.1417313l-10.236206 0z" fill-rule="evenodd"/><path fill="#ffffff" d="m268.3071 154.12862l10.236206 0l0 2.1417236l-10.236206 0z" fill-rule="evenodd"/><path fill="#ffffff" d="m268.33334 182.69292l10.236206 0l0 2.1417236l-10.236206 0z" fill-rule="evenodd"/><path fill="#ffffff" d="m268.29398 211.25722l10.236206 0l0 2.141739l-10.236206 0z" fill-rule="evenodd"/><path fill="#ffffff" d="m268.32022 239.82152l10.236206 0l0 2.141739l-10.236206 0z" fill-rule="evenodd"/><path fill="#ffffff" d="m268.28085 269.12073l10.236206 0l0 2.1417542l-10.236206 0z" fill-rule="evenodd"/><path fill="#ffffff" d="m268.3071 297.68503l10.236206 0l0 2.1417542l-10.236206 0z" fill-rule="evenodd"/><path fill="#ffffff" d="m268.28085 325.51443l10.236206 0l0 2.1417236l-10.236206 0z" fill-rule="evenodd"/><path fill="#ffffff" d="m554.27295 311.61942l10.236267 0l0 2.1417542l-10.236267 0z" fill-rule="evenodd"/><path fill="#ffffff" d="m554.27295 269.12073l10.236267 0l0 2.1417542l-10.236267 0z" fill-rule="evenodd"/><path fill="#ffffff" d="m554.27295 225.7664l10.236267 0l0 2.141739l-10.236267 0z" fill-rule="evenodd"/><path fill="#ffffff" d="m554.27295 183.26772l10.236267 0l0 2.141739l-10.236267 0z" fill-rule="evenodd"/><path fill="#ffffff" d="m554.27295 139.49869l10.236267 0l0 2.141739l-10.236267 0z" fill-rule="evenodd"/><path fill="#ffffff" d="m554.27295 97.0l10.236267 0l0 2.1417313l-10.236267 0z" fill-rule="evenodd"/><path fill="#ffffff" d="m554.27295 54.501312l10.236267 0l0 2.1417313l-10.236267 0z" fill-rule="evenodd"/><path fill="#000000" d="m225.53543 165.28346l39.370087 0l0 37.35434l-39.370087 0z" fill-rule="evenodd"/><path stroke="#ffffff" stroke-width="2.0" stroke-linejoin="round" stroke-linecap="butt" d="m225.53543 165.28346l39.370087 0l0 37.35434l-39.370087 0z" fill-rule="evenodd"/><path fill="#ffffff" d="m260.63254 176.28346l12.503937 7.480316l-12.503937 7.480316z" fill-rule="evenodd"/><path fill="#000000" d="m257.76642 176.28346l12.503937 7.480316l-12.503937 7.480316z" fill-rule="evenodd"/><path fill="#000000" d="m256.1573 171.22047l7.7795105 0l0 27.905518l-7.7795105 0z" fill-rule="evenodd"/><path fill="#000000" d="m618.2336 170.15794l-51.02362 0l0 29.606308l51.02362 0z" fill-rule="evenodd"/><path stroke="#ffffff" stroke-width="2.0" stroke-linejoin="round" stroke-linecap="butt" d="m618.2336 170.15794l-51.02362 0l0 29.606308l51.02362 0z" fill-rule="evenodd"/><path fill="#ffffff" d="m571.4829 176.9191l-12.503906 7.480316l12.503906 7.480316z" fill-rule="evenodd"/><path fill="#000000" d="m574.34906 176.9191l-12.503906 7.480316l12.503906 7.480316z" fill-rule="evenodd"/><path fill="#000000" d="m575.958 171.85611l-7.779541 0l0 22.362213l7.779541 0z" fill-rule="evenodd"/><path fill="#0399ee" d="m301.69028 89.94154c0 -16.076744 13.032776 -29.109524 29.109528 -29.109524l170.00143 0c7.720337 0 15.12442 3.066887 20.583527 8.525982c5.4591064 5.459091 8.526001 12.863213 8.526001 20.583542l0 187.26128c0 16.076752 -13.032776 29.109528 -29.109528 29.109528l-170.00143 0c-16.076752 0 -29.109528 -13.032776 -29.109528 -29.109528z" fill-rule="evenodd"/><path fill="#884401" d="m301.8298 182.73543c0 -14.616257 11.848816 -26.465088 26.465088 -26.465088l175.29031 0c7.0189514 0 13.750488 2.7882843 18.713623 7.7514496c4.963196 4.9631653 7.751465 11.694656 7.751465 18.713638l0 96.58165c0 14.616241 -11.848816 26.465088 -26.465088 26.465088l-175.29031 0c-14.616272 0 -26.465088 -11.848846 -26.465088 -26.465088z" fill-rule="evenodd"/><path fill="#0399ee" d="m301.93787 106.95276l227.59052 0l0 76.31496l-227.59052 0z" fill-rule="evenodd"/><path fill="#ffffff" d="m629.6585 40.94197c0 -16.74249 13.572449 -30.31496 30.314941 -30.31496c8.040039 0 15.750793 3.1938887 21.435913 8.879047c5.6851807 5.685158 8.879089 13.395885 8.879089 21.435913c0 16.742489 -13.57251 30.314964 -30.315002 30.314964c-16.742493 0 -30.314941 -13.572475 -30.314941 -30.314964z" fill-rule="evenodd"/><path fill="#000000" d="m643.23615 37.168144l12.963501 0l0 -12.963524l7.565857 0l0 12.963524l12.963562 0l0 7.565876l-12.963562 0l0 12.963524l-7.565857 0l0 -12.963524l-12.963501 0z" fill-rule="evenodd"/></g></svg>