<svg version="1.1" viewBox="0.0 0.0 835.994750656168 459.06299212598424" fill="none" stroke="none" stroke-linecap="square" stroke-miterlimit="10" xmlns:xlink="http://www.w3.org/1999/xlink" xmlns="http://www.w3.org/2000/svg"><clipPath id="p.0"><path d="m0 0l835.99475 0l0 459.063l-835.99475 0l0 -459.063z" clip-rule="nonzero"/></clipPath><g clip-path="url(#p.0)"><path fill="#5cc1ff" d="m0 0l835.99475 0l0 459.063l-835.99475 0z" fill-rule="evenodd"/><path fill="#8fbd20" d="m0 182.69292l836.0 0l0 276.37793l-836.0 0z" fill-rule="evenodd"/><path fill="#666666" d="m208.58005 459.07086l190.36636 -276.37793l38.10193 0l190.36633 276.37793z" fill-rule="evenodd"/><path fill="#999999" d="m213.52493 459.07086l190.36636 -276.37793l28.212158 0l190.36633 276.37793z" fill-rule="evenodd"/><path fill="#ffffff" d="m-82.002625 181.76324l1000.0 0l0 4.0l-1000.0 0z" fill-rule="evenodd"/><path fill="#444444" fill-opacity="0.8667" d="m227.57217 12.346457l51.02362 0l0 343.2126l-51.02362 0z" fill-rule="evenodd"/><path fill="#444444" fill-opacity="0.8667" d="m554.27295 12.346457l51.02362 0l0 343.2126l-51.02362 0z" fill-rule="evenodd"/><path fill="#444444" fill-opacity="0.8667" d="m242.32756 569.13074c0 -97.04559 78.649826 -175.71655 175.6693 -175.71655c97.01944 0 175.66928 78.67096 175.66928 175.71655z" fill-rule="evenodd"/><path fill="#ffffff" d="m426.43307 378.54855l-10.188995 14.86615l-10.188965 -14.86615z" fill-rule="evenodd"/><path fill="#222222" d="m423.25198 380.0735l-7.007904 10.047241l-7.0078735 -10.047241z" fill-rule="evenodd"/><path fill="#ffffff" d="m268.33334 39.87139l10.236206 0l0 2.1417313l-10.236206 0z" fill-rule="evenodd"/><path fill="#ffffff" d="m268.3596 68.43569l10.236206 0l0 2.141739l-10.236206 0z" fill-rule="evenodd"/><path fill="#ffffff" d="m268.32022 97.0l10.236206 0l0 2.1417313l-10.236206 0z" fill-rule="evenodd"/><path fill="#ffffff" d="m268.34647 125.56431l10.236206 0l0 2.1417313l-10.236206 0z" fill-rule="evenodd"/><path fill="#ffffff" d="m268.3071 154.12862l10.236206 0l0 2.1417236l-10.236206 0z" fill-rule="evenodd"/><path fill="#ffffff" d="m268.33334 182.69292l10.236206 0l0 2.1417236l-10.236206 0z" fill-rule="evenodd"/><path fill="#ffffff" d="m268.29398 211.25722l10.236206 0l0 2.141739l-10.236206 0z" fill-rule="evenodd"/><path fill="#ffffff" d="m268.32022 239.82152l10.236206 0l0 2.141739l-10.236206 0z" fill-rule="evenodd"/><path fill="#ffffff" d="m268.28085 269.12073l10.236206 0l0 2.1417542l-10.236206 0z" fill-rule="evenodd"/><path fill="#ffffff" d="m268.3071 297.68503l10.236206 0l0 2.1417542l-10.236206 0z" fill-rule="evenodd"/><path fill="#ffffff" d="m268.28085 325.51443l10.236206 0l0 2.1417236l-10.236206 0z" fill-rule="evenodd"/><path fill="#ffffff" d="m554.27295 311.61942l10.236267 0l0 2.1417542l-10.236267 0z" fill-rule="evenodd"/><path fill="#ffffff" d="m554.27295 269.12073l10.236267 0l0 2.1417542l-10.236267 0z" fill-rule="evenodd"/><path fill="#ffffff" d="m554.27295 225.7664l10.236267 0l0 2.141739l-10.236267 0z" fill-rule="evenodd"/><path fill="#ffffff" d="m554.27295 183.26772l10.236267 0l0 2.141739l-10.236267 0z" fill-rule="evenodd"/><path fill="#ffffff" d="m554.27295 139.49869l10.236267 0l0 2.141739l-10.236267 0z" fill-rule="evenodd"/><path fill="#ffffff" d="m554.27295 97.0l10.236267 0l0 2.1417313l-10.236267 0z" fill-rule="evenodd"/><path fill="#ffffff" d="m554.27295 54.501312l10.236267 0l0 2.1417313l-10.236267 0z" fill-rule="evenodd"/><path fill="#000000" d="m225.53543 165.28346l39.370087 0l0 37.35434l-39.370087 0z" fill-rule="evenodd"/><path stroke="#ffffff" stroke-width="2.0" stroke-linejoin="round" stroke-linecap="butt" d="m225.53543 165.28346l39.370087 0l0 37.35434l-39.370087 0z" fill-rule="evenodd"/><path fill="#ffffff" d="m260.63254 176.28346l12.503937 7.480316l-12.503937 7.480316z" fill-rule="evenodd"/><path fill="#000000" d="m257.76642 176.28346l12.503937 7.480316l-12.503937 7.480316z" fill-rule="evenodd"/><path fill="#000000" d="m256.1573 171.22047l7.7795105 0l0 27.905518l-7.7795105 0z" fill-rule="evenodd"/><path fill="#000000" d="m618.2336 170.15794l-51.02362 0l0 29.606308l51.02362 0z" fill-rule="evenodd"/><path stroke="#ffffff" stroke-width="2.0" stroke-linejoin="round" stroke-linecap="butt" d="m618.2336 170.15794l-51.02362 0l0 29.606308l51.02362 0z" fill-rule="evenodd"/><path fill="#ffffff" d="m571.4829 176.9191l-12.503906 7.480316l12.503906 7.480316z" fill-rule="evenodd"/><path fill="#000000" d="m574.34906 176.9191l-12.503906 7.480316l12.503906 7.480316z" fill-rule="evenodd"/><path fill="#000000" d="m575.958 171.85611l-7.779541 0l0 22.362213l7.779541 0z" fill-rule="evenodd"/><path fill="#ffffff" d="m-18.76895 7.765189c-1.4149151 -7.592319 3.2305326 -15.1082535 11.965109 -19.358517c8.734576 -4.250263 20.026426 -4.4894505 29.084 -0.616065c3.2084675 -4.414489 9.080902 -7.46239 15.841007 -8.22177c6.760105 -0.75938034 13.613876 0.85894966 18.488182 4.3654804c2.733204 -4.0024605 8.0998955 -6.6916027 14.195698 -7.1131783c6.0957947 -0.42157555 12.057999 1.4840775 15.770905 5.0407333c4.9379272 -4.2425976 12.794304 -6.028906 20.169617 -4.5859833c7.3753204 1.4429245 12.944908 5.855919 14.298775 11.329458c6.0498047 1.204916 11.089157 4.267971 13.816071 8.39777c2.7268982 4.1297994 2.8738556 8.921219 0.4028778 13.136309c5.9572906 5.6613264 7.3508606 13.204975 3.6606293 19.815792c-3.690216 6.610815 -11.909813 11.295599 -21.59137 12.30607c-0.068237305 6.204487 -4.7284317 11.897648 -12.184341 14.885094c-7.4559097 2.9874458 -16.543266 2.8026695 -23.7594 -0.4831009c-3.0737 7.43095 -11.725113 12.898563 -22.216526 14.040646c-10.491409 1.1420822 -20.942024 -2.2461243 -26.836784 -8.700775c-7.225748 3.1815186 -15.896042 4.098015 -24.05504 2.5427399c-8.158999 -1.5552711 -15.119429 -5.4513016 -19.311155 -10.809227c-7.383806 0.63090897 -14.522924 -2.162403 -17.874239 -6.9936295c-3.3513126 -4.8312263 -2.2014084 -10.671913 2.8790245 -14.623348c-6.586546 -2.830618 -9.947397 -8.447504 -8.330004 -13.921673c1.6173897 -5.474169 7.8465233 -9.565152 15.439144 -10.139665z" fill-rule="evenodd"/><path fill="#000000" fill-opacity="0.0" d="m-26.024048 32.11915c3.1082115 1.3357773 6.698923 1.9417152 10.290025 1.7364616m4.703573 19.880997c1.5443058 -0.1319542 3.0580192 -0.41138077 4.5021024 -0.8310776m38.86193 9.097218c-1.0861626 -1.189331 -1.9955559 -2.4602318 -2.7126808 -3.79105m51.767868 -1.5490417c0.560379 -1.3547745 0.9234543 -2.7491264 1.0831757 -4.1598015m34.859207 -10.2416725c0.072654724 -6.605633 -5.065674 -12.65382 -13.207924 -15.546684m31.138504 -16.574482c-1.3186188 2.249343 -3.3316193 4.2447042 -5.881195 5.8296347m-8.336525 -27.364304c0.22467041 0.9083357 0.32865143 1.8303232 0.31049347 2.7531834m-34.778305 -9.496385c-1.2317657 1.0583172 -2.246582 2.2409735 -3.012848 3.5111437m-26.954033 -1.4391603c-0.6564293 0.9612608 -1.1466026 1.9784403 -1.45924 3.0281057m-32.870453 0.82826424c1.9165764 0.8196049 3.6896706 1.8060884 5.2803307 2.9377785m-46.32891 17.036911c0.19501114 1.0464182 0.5031395 2.079936 0.92150116 3.0908794" fill-rule="evenodd"/></g></svg>